<?xml version="1.0" encoding="UTF-8" standalone="no"?>
<!-- Created with Inkscape (http://www.inkscape.org/) -->

<svg
   width="512"
   height="512"
   viewBox="0 0 135.46666 135.46667"
   version="1.1"
   id="svg1"
   sodipodi:docname="bean_lv.svg"
   inkscape:version="1.3 (0e150ed6c4, 2023-07-21)"
   xmlns:inkscape="http://www.inkscape.org/namespaces/inkscape"
   xmlns:sodipodi="http://sodipodi.sourceforge.net/DTD/sodipodi-0.dtd"
   xmlns="http://www.w3.org/2000/svg"
   xmlns:svg="http://www.w3.org/2000/svg">
  <sodipodi:namedview
     id="namedview1"
     pagecolor="#ffffff"
     bordercolor="#000000"
     borderopacity="0.25"
     inkscape:showpageshadow="2"
     inkscape:pageopacity="0.0"
     inkscape:pagecheckerboard="0"
     inkscape:deskcolor="#d1d1d1"
     inkscape:document-units="mm"
     inkscape:zoom="1.4324567"
     inkscape:cx="117.28103"
     inkscape:cy="272.60859"
     inkscape:window-width="2560"
     inkscape:window-height="1351"
     inkscape:window-x="-9"
     inkscape:window-y="-9"
     inkscape:window-maximized="1"
     inkscape:current-layer="layer1"
     showgrid="false"
     showguides="true">
    <sodipodi:guide
       position="316.21663,8.4900747"
       orientation="1,0"
       id="guide1"
       inkscape:locked="false" />
  </sodipodi:namedview>
  <defs
     id="defs1" />
  <g
     inkscape:label="Layer 1"
     inkscape:groupmode="layer"
     id="layer1">
    <path
       id="path26"
       style="fill:#a4343a;fill-opacity:1"
       d="M 82.682808 28.522807 C 83.238183 28.532161 83.792321 28.555317 84.344722 28.591536 C 83.792118 28.55587 83.238192 28.532161 82.682808 28.522807 z M 82.682808 28.522807 C 82.079725 28.512649 81.475473 28.52155 80.871549 28.541927 C 81.47543 28.519808 82.079644 28.512649 82.682808 28.522807 z M 80.842094 28.543477 C 80.244046 28.564145 79.646828 28.602408 79.050472 28.652515 C 79.646739 28.602416 80.24426 28.565863 80.842094 28.543477 z M 79.050472 28.652515 C 74.872653 29.003542 70.765947 30.063763 67.155074 31.762402 C 59.253083 35.735008 53.731953 41.751986 48.814075 48.977889 C 45.463475 54.221654 42.118681 61.285305 41.277584 70.622046 C 41.279662 70.620034 41.281705 70.616832 41.283785 70.614811 C 41.241025 70.894937 41.196549 71.175695 41.167513 71.453003 C 40.173002 80.95114 42.242975 90.312369 46.158423 97.093815 L 79.050472 28.652515 z M 46.158423 97.093815 C 48.057854 100.38358 50.390117 103.06569 53.022087 104.8582 C 50.390108 103.06569 48.057859 100.38359 46.158423 97.093815 z M 84.600004 28.613757 C 85.083292 28.649122 85.565941 28.690045 86.045394 28.746049 C 85.565749 28.690706 85.08344 28.648585 84.600004 28.613757 z M 86.045394 28.746049 C 87.156869 28.875879 88.256389 29.061122 89.336149 29.302087 C 88.256321 29.061107 87.157474 28.874364 86.045394 28.746049 z M 89.336149 29.302087 L 53.024154 104.85975 C 54.823281 106.08464 56.759603 106.89892 58.792277 107.20379 C 62.873113 107.81585 67.790908 105.95103 70.987915 102.57875 C 72.125308 101.37899 75.061361 97.119964 74.900338 97.263314 C 75.146457 96.941412 75.411331 96.393407 75.805192 95.535254 C 77.744291 91.310318 78.199301 85.349853 78.399349 78.999829 C 78.624294 71.859486 79.764841 67.953326 87.649947 60.306913 C 88.22914 59.745257 88.644159 59.321 89.099988 58.862557 C 89.211063 58.755016 89.334172 58.630023 89.461723 58.502372 C 90.247004 57.705801 90.881292 57.047198 91.193917 56.711267 C 91.265687 56.634147 91.344986 56.543076 91.384086 56.492676 C 91.385628 56.490689 91.383718 56.488969 91.38512 56.486991 C 93.276197 54.446249 95.42387 51.989508 96.158988 50.8863 C 98.280962 47.701814 99.635555 42.755638 99.417704 40.092643 C 99.421487 40.098928 99.426359 40.103882 99.430107 40.110213 C 99.334067 35.639788 96.078629 31.333005 92.104972 30.056047 C 91.201745 29.758791 90.27552 29.511723 89.336149 29.302087 z M 74.817139 97.364083 C 74.79703 97.390032 74.807211 97.372297 74.779932 97.408525 C 74.762236 97.432025 74.738751 97.432196 74.71947 97.449349 C 74.751796 97.421577 74.78478 97.399942 74.817139 97.364083 z " />
    <path
       id="path26-7"
       style="fill:#ffffff;fill-opacity:1;font-variation-settings:normal;opacity:1;vector-effect:none;stroke-width:1;stroke-linecap:butt;stroke-linejoin:miter;stroke-miterlimit:4;stroke-dasharray:none;stroke-dashoffset:0;stroke-opacity:1;-inkscape-stroke:none;stop-color:#000000;stop-opacity:1"
       d="M 82.682808 28.522807 C 81.472692 28.502424 80.258833 28.550986 79.050472 28.652515 L 46.158423 97.093815 C 48.05837 100.38447 50.391307 103.06724 53.024154 104.85975 L 89.336149 29.302087 C 87.176627 28.820156 84.938157 28.560795 82.682808 28.522807 z " />
  </g>
</svg>
